HIERARCHY
ROOT Bone
{
	OFFSET 0.000000 0.000000 0.000000
	CHANNELS 6 Xposition Yposition Zposition Xrotation Yrotation Zrotation
	JOINT Bone.001
	{
		OFFSET 0.000000 0.000000 0.131190
		CHANNELS 3 Xrotation Yrotation Zrotation
		JOINT Bone.002
		{
			OFFSET 0.000000 0.000000 0.133762
			CHANNELS 3 Xrotation Yrotation Zrotation
			JOINT Bone.003
			{
				OFFSET 0.000000 0.000000 0.133762
				CHANNELS 3 Xrotation Yrotation Zrotation
				JOINT Bone.004
				{
					OFFSET -0.002572 0.000000 0.133762
					CHANNELS 3 Xrotation Yrotation Zrotation
					JOINT Bone.005
					{
						OFFSET -0.007717 0.000000 0.133762
						CHANNELS 3 Xrotation Yrotation Zrotation
						End Site
						{
							OFFSET 0.002572 0.000000 0.133762
						}
					}
				}
			}
		}
	}
}
MOTION
Frames: 25
Frame Time: 0.041667
0.000000 0.000000 0.000000 0.000000 -40.060784 0.000000 0.000000 23.746932 0.000000 0.000000 1.295492 0.000000 0.000000 0.000000 0.000000 0.000000 1.311400 0.000000 0.000000 -5.146198 0.000000 
0.000000 0.000000 0.000000 0.000000 -40.060784 0.000000 0.000000 25.042424 0.000000 0.000000 0.000000 0.000000 0.000000 1.311400 0.000000 0.000000 -1.311400 0.000000 0.000000 -2.574064 0.000000 
0.000000 0.000000 0.000000 0.000000 -39.143986 0.000000 0.000000 21.945445 0.000000 0.000000 3.806043 0.000000 0.000000 -1.283895 0.000000 0.000000 1.283895 0.000000 0.000000 -5.042451 0.000000 
0.000000 0.000000 0.000000 0.000000 -38.333340 0.000000 0.000000 21.134799 0.000000 0.000000 3.806043 0.000000 0.000000 0.000000 0.000000 0.000000 -1.283895 0.000000 0.000000 -2.522148 0.000000 
0.000000 0.000000 0.000000 0.000000 -37.266402 0.000000 0.000000 21.673591 0.000000 0.000000 2.500918 0.000000 0.000000 -1.257439 0.000000 0.000000 0.000000 0.000000 0.000000 -3.684954 0.000000 
0.000000 0.000000 0.000000 0.000000 -36.674350 0.000000 0.000000 21.419231 0.000000 0.000000 1.218875 0.000000 0.000000 0.000000 0.000000 0.000000 1.231977 0.000000 0.000000 -6.020444 0.000000 
0.000000 0.000000 0.000000 0.000000 -36.674350 0.000000 0.000000 21.419231 0.000000 0.000000 1.218875 0.000000 0.000000 0.000000 0.000000 0.000000 1.231977 0.000000 0.000000 -6.020444 0.000000 
0.000000 0.000000 0.000000 0.000000 -36.098284 0.000000 0.000000 19.638269 0.000000 0.000000 2.423771 0.000000 0.000000 0.000000 0.000000 0.000000 1.231977 0.000000 0.000000 -4.845858 0.000000 
0.000000 0.000000 0.000000 0.000000 -36.674350 0.000000 0.000000 20.560931 0.000000 0.000000 2.377150 0.000000 0.000000 0.000000 0.000000 0.000000 0.000000 0.000000 0.000000 -3.545230 0.000000 
0.000000 0.000000 0.000000 0.000000 -36.674350 0.000000 0.000000 20.560931 0.000000 0.000000 2.377150 0.000000 0.000000 0.000000 0.000000 0.000000 0.000000 0.000000 0.000000 -3.545230 0.000000 
0.000000 0.000000 0.000000 0.000000 -37.266402 0.000000 0.000000 22.334985 0.000000 0.000000 0.000000 0.000000 0.000000 1.195149 0.000000 0.000000 -1.195149 0.000000 0.000000 -1.182001 0.000000 
0.000000 0.000000 0.000000 0.000000 -36.098284 0.000000 0.000000 19.984866 0.000000 0.000000 1.182001 0.000000 0.000000 0.000000 0.000000 0.000000 2.402609 0.000000 0.000000 -4.752691 0.000000 
0.000000 0.000000 0.000000 0.000000 -36.469234 0.000000 0.000000 20.688481 0.000000 0.000000 0.000000 0.000000 0.000000 1.159879 0.000000 0.000000 0.000000 0.000000 0.000000 -2.306639 0.000000 
0.000000 0.000000 0.000000 0.000000 -36.098284 0.000000 0.000000 20.317531 0.000000 0.000000 1.159879 0.000000 0.000000 -1.159879 0.000000 0.000000 1.159879 0.000000 0.000000 -2.306639 0.000000 
0.000000 0.000000 0.000000 0.000000 -34.992020 0.000000 0.000000 19.211267 0.000000 0.000000 0.000000 0.000000 0.000000 1.159879 0.000000 0.000000 -1.159879 0.000000 0.000000 -2.279719 0.000000 
0.000000 0.000000 0.000000 0.000000 -35.882137 0.000000 0.000000 20.101384 0.000000 0.000000 0.000000 0.000000 0.000000 0.000000 0.000000 0.000000 0.000000 0.000000 0.000000 -2.279719 0.000000 
0.000000 0.000000 0.000000 0.000000 -34.992020 0.000000 0.000000 19.211267 0.000000 0.000000 1.159879 0.000000 0.000000 -2.306639 0.000000 0.000000 1.146760 0.000000 0.000000 -2.279719 0.000000 
0.000000 0.000000 0.000000 0.000000 -35.655328 0.000000 0.000000 18.727815 0.000000 0.000000 2.306639 0.000000 0.000000 -2.306639 0.000000 0.000000 1.146760 0.000000 0.000000 -3.398255 0.000000 
0.000000 0.000000 0.000000 0.000000 -35.311213 0.000000 0.000000 19.530460 0.000000 0.000000 1.159879 0.000000 0.000000 -2.306639 0.000000 0.000000 1.146760 0.000000 0.000000 -4.501806 0.000000 
0.000000 0.000000 0.000000 0.000000 -36.253838 0.000000 0.000000 20.473084 0.000000 0.000000 1.159879 0.000000 0.000000 -2.306639 0.000000 0.000000 0.000000 0.000000 0.000000 -2.251495 0.000000 
0.000000 0.000000 0.000000 0.000000 -35.655328 0.000000 0.000000 19.874575 0.000000 0.000000 1.159879 0.000000 0.000000 -2.306639 0.000000 0.000000 0.000000 0.000000 0.000000 -2.251495 0.000000 
0.000000 0.000000 0.000000 0.000000 -35.655328 0.000000 0.000000 19.541910 0.000000 0.000000 1.182001 0.000000 0.000000 -2.350081 0.000000 0.000000 2.350081 0.000000 0.000000 -4.641709 0.000000 
0.000000 0.000000 0.000000 0.000000 -35.655328 0.000000 0.000000 19.195313 0.000000 0.000000 1.204896 0.000000 0.000000 -1.204896 0.000000 0.000000 0.000000 0.000000 0.000000 -2.364695 0.000000 
0.000000 0.000000 0.000000 0.000000 -35.311213 0.000000 0.000000 20.056095 0.000000 0.000000 0.000000 0.000000 0.000000 -1.204896 0.000000 0.000000 1.204896 0.000000 0.000000 -4.727988 0.000000 
0.000000 0.000000 0.000000 0.000000 -36.253838 0.000000 0.000000 20.661027 0.000000 0.000000 0.000000 0.000000 0.000000 0.000000 0.000000 0.000000 -1.228599 0.000000 0.000000 -1.212876 0.000000 
